<svg xmlns="http://www.w3.org/2000/svg" width="1440" height="560" preserveAspectRatio="none"><g mask="url(&quot;#SvgjsMask1007&quot;)" fill="none"><path fill="rgba(249, 249, 249, 1)" d="M0 0h1440v560H0z"/><path d="M0 434.446c83.063 2.346 171.559-15.593 233.796-70.652 59.609-52.734 64.216-140.616 90.09-215.88 23.138-67.304 55.116-131.038 53.636-202.193-1.61-77.385-16.282-156.614-62.394-218.781-47.83-64.485-121.889-101.172-196.646-130.454-80.453-31.514-164.551-57.103-250.034-44.512-92.831 13.674-189.742 45.51-249.255 118.055-59.075 72.011-63.521 172.665-65.631 265.783-1.922 84.798 14.227 168.498 54.092 243.366 38.281 71.894 98.614 127.226 166.886 171.645C-156.884 395.44-81.78 432.136 0 434.446" fill="#c7c7c7"/><path d="M1440 1026.854c121.624 10.145 235.585 120.07 350.144 77.981 114.557-42.088 172.802-172.114 216.367-286.118 41.841-109.492 66.966-234.491 24.294-343.662-40.308-103.123-165.117-137.753-243.163-216.289-70.874-71.319-98.495-190.738-193.639-223.253-95.532-32.647-192.734 34.846-291.094 57.599-105.635 24.436-244.258-6.522-308.208 81.034-64.995 88.987 15.104 213.478 12.635 323.646-2.08 92.824-45.42 180.873-25.974 271.661 22.436 104.748 50.706 227.514 144.123 279.942 93.553 52.505 207.606-31.458 314.515-22.541" fill="#fff"/></g><defs><mask id="SvgjsMask1007"><path fill="#fff" d="M0 0h1440v560H0z"/></mask></defs></svg>